<?xml version="1.0" encoding="UTF-8"?>
<svg version="1.1" xmlns="http://www.w3.org/2000/svg" width="50" height="50">
<path d="M0 0 C3.1015625 0.35546875 3.1015625 0.35546875 5.375 0.8125 C5.0936602 6.29862608 2.77398387 9.43595436 -0.4453125 13.6640625 C-1.8115204 15.69650231 -1.8115204 15.69650231 -1.49609375 17.8046875 C-0.08603741 21.05477252 2.02163717 23.74105554 4.09765625 26.59375 C5.375 28.8125 5.375 28.8125 5.375 32.8125 C1.05711236 33.84603693 -2.33225318 34.04521446 -6.625 32.8125 C-11.52945611 28.67745101 -15.07610904 23.09808228 -18.625 17.8125 C-9.88019014 -0.10535748 -9.88019014 -0.10535748 0 0 Z M-4.625 2.8125 C-5.82772819 5.21795638 -5.72571472 6.76246953 -5.6875 9.4375 C-5.67847656 10.25476563 -5.66945313 11.07203125 -5.66015625 11.9140625 C-5.64855469 12.54054688 -5.63695312 13.16703125 -5.625 13.8125 C-4.635 14.3075 -4.635 14.3075 -3.625 14.8125 C-2.45561933 13.00174982 -1.28956267 11.18885257 -0.125 9.375 C0.5246875 8.36566406 1.174375 7.35632813 1.84375 6.31640625 C3.46195319 4.15948182 3.46195319 4.15948182 3.375 2.8125 C0.735 2.8125 -1.905 2.8125 -4.625 2.8125 Z M-9.625 7.8125 C-12.595 11.7725 -12.595 11.7725 -15.625 15.8125 C-13.84392177 19.37465645 -12.05490039 21.93764961 -9.5625 25 C-8.84964844 25.88042969 -8.13679687 26.76085937 -7.40234375 27.66796875 C-6.50995567 28.74471832 -5.61387464 29.82362536 -4.625 30.8125 C-1.95441149 30.95365161 0.69932238 30.85497107 3.375 30.8125 C2.91609375 30.02746094 2.4571875 29.24242188 1.984375 28.43359375 C-7.04105839 12.98038321 -7.04105839 12.98038321 -9.625 7.8125 Z " fill="#7B70FD" transform="translate(18.625,7.1875)"/>
<path d="M0 0 C3.80604222 -0.56670849 7.20844476 -0.73433283 11 0 C14.35089379 2.53387191 16.60398766 5.57712523 19 9 C19.47824219 9.58007812 19.95648438 10.16015625 20.44921875 10.7578125 C21.625 12.25 21.625 12.25 23 15 C21.81276463 19.36548659 19.31768419 22.32891445 16.4375 25.75 C15.63183594 26.71421875 14.82617188 27.6784375 13.99609375 28.671875 C12 31 12 31 11 32 C9.14712498 32.07226502 7.29166122 32.0838122 5.4375 32.0625 C4.42558594 32.05347656 3.41367187 32.04445312 2.37109375 32.03515625 C1.58863281 32.02355469 0.80617188 32.01195312 0 32 C0.28262865 26.4887413 2.61246906 23.43206514 5.91796875 19.24609375 C7.29383881 17.01034414 7.29383881 17.01034414 6.33984375 14.4765625 C4.73213228 11.50487425 2.93128225 8.74941484 1.0234375 5.96484375 C0 4 0 4 0 0 Z M2 2 C2.45890625 2.7734375 2.9178125 3.546875 3.390625 4.34375 C6.80900411 10.14637672 10.03311662 15.95634868 13 22 C13.66 22.99 14.32 23.98 15 25 C18.72576794 19.95544674 18.72576794 19.95544674 20 14 C18.60403482 11.59701026 17.34253024 9.76536123 15.5625 7.6875 C15.10891113 7.14641602 14.65532227 6.60533203 14.18798828 6.04785156 C12.12968225 3.75828329 10.51516697 2.16350594 7.55078125 1.22265625 C5.15284684 1.17856924 5.15284684 1.17856924 2 2 Z M9 18 C7.82767315 19.6209213 6.6622923 21.24686833 5.5 22.875 C4.8503125 23.77992187 4.200625 24.68484375 3.53125 25.6171875 C1.81979394 27.80835508 1.81979394 27.80835508 2 30 C4.64 30 7.28 30 10 30 C11.11445498 27.77109005 11.16480286 26.46944894 11.1875 24 C11.20167969 23.29875 11.21585938 22.5975 11.23046875 21.875 C11.16512323 19.75475062 11.16512323 19.75475062 9 18 Z " fill="#7B6FFA" transform="translate(27,8)"/>
</svg>
